<?xml version="1.0" encoding="utf-8"?>
<!-- Generator: Adobe Illustrator 19.0.0, SVG Export Plug-In . SVG Version: 6.00 Build 0)  -->
<svg version="1.1" id="Layer_1" xmlns="http://www.w3.org/2000/svg" xmlns:xlink="http://www.w3.org/1999/xlink" x="0px" y="0px"
	 viewBox="136 357.5 338 79" style="enable-background:new 136 357.5 338 79;" xml:space="preserve">
<style type="text/css">
	.st0{display:none;fill:#89203E;}
	.st1{display:none;fill:#FFFFFF;enable-background:new    ;}
	.st2{font-family:'ABSTERRegular';}
	.st3{font-size:72px;}
	.st4{fill:#FFFFFF;}
</style>
<rect id="XMLID_2_" x="136" y="357.5" class="st0" width="338" height="79"/>
<text id="XMLID_1_" transform="matrix(1 0 0 1 174.6016 420)" class="st1 st2 st3">ELARA</text>
<g id="XMLID_30_">
	<path id="XMLID_31_" class="st4" d="M186.3,365.7v7.8h-41.9v-7.7L186.3,365.7L186.3,365.7z M180.4,399.9h-36v-7.8h36V399.9z
		 M144.4,421h41.9v7.7h-41.9V421z"/>
	<path id="XMLID_35_" class="st4" d="M247,428.8h-41.1v-63h9.3v55.3H247V428.8z"/>
	<path id="XMLID_37_" class="st4" d="M324.1,428.8h-9.5l-19.1-46.5l-0.2-0.5l0,0l0,0l0,0l0,0l-0.2,0.5L276,428.8h-9.5l25.9-63h5.7
		L324.1,428.8z"/>
	<path id="XMLID_39_" class="st4" d="M381.1,388.1c0-8.5-5.9-14.6-13-14.6h-24.4v-7.7h9.3h15.1c12.3,0.1,22.3,9.7,22.3,22.3
		c0,9.6-5.5,17.3-13.5,20.7l13.5,20h-10.3l-12.3-18.3h-14.7v18.3h-9.3v-26h24.4C375.3,402.7,381.1,396.7,381.1,388.1z"/>
	<path id="XMLID_41_" class="st4" d="M467.6,428.8h-9.5L439,382.3l-0.2-0.5l0,0l0,0l0,0l0,0l-0.2,0.5l-19.1,46.5H410l25.9-63h5.8
		L467.6,428.8z"/>
</g>
</svg>
