<?xml version="1.0" encoding="utf-8"?>
<!-- Generator: Adobe Illustrator 19.0.0, SVG Export Plug-In . SVG Version: 6.00 Build 0)  -->
<svg version="1.1" id="Layer_1" xmlns="http://www.w3.org/2000/svg" xmlns:xlink="http://www.w3.org/1999/xlink" x="0px" y="0px"
	 viewBox="0 0 612 217.5" style="enable-background:new 0 0 612 217.5;" xml:space="preserve">
<style type="text/css">
	.st0{fill:#89203E;}
	.st1{display:none;fill:#FFFFFF;}
	.st2{font-family:'ABSTERRegular';}
	.st3{font-size:72px;}
	.st4{fill:#FFFFFF;}
</style>
<rect id="XMLID_2_" class="st0" width="612" height="217.5"/>
<text id="XMLID_1_" transform="matrix(1 0 0 1 174.6016 131.5)" class="st1 st2 st3">ELARA</text>
<g id="XMLID_30_">
	<path id="XMLID_31_" class="st4" d="M216.5,68.5v7.7h-41.9v-7.7H216.5z M210.6,102.7h-36v-7.8h36V102.7z M174.6,123.8h41.9v7.7
		h-41.9V123.8z"/>
	<path id="XMLID_35_" class="st4" d="M261.2,131.5h-41.1v-63h9.3v55.3h31.8V131.5z"/>
	<path id="XMLID_37_" class="st4" d="M322.3,131.5h-9.5L293.8,85l-0.2-0.5l0,0l0,0l0,0l0,0l-0.2,0.5l-19.1,46.5h-9.5l25.9-63h5.7
		L322.3,131.5z"/>
	<path id="XMLID_39_" class="st4" d="M363.3,90.8c0-8.5-5.9-14.6-13-14.6h-24.4v-7.7h9.3h15.1c12.3,0.1,22.3,9.7,22.3,22.3
		c0,9.6-5.5,17.3-13.5,20.7l13.5,20h-10.3L350,113.2h-14.7v18.3h-9.3v-26h24.4C357.4,105.5,363.3,99.4,363.3,90.8z"/>
	<path id="XMLID_41_" class="st4" d="M433.8,131.5h-9.5L405.2,85l-0.2-0.5l0,0l0,0l0,0l0,0l-0.2,0.5l-19.1,46.5h-9.5l25.9-63h5.8
		L433.8,131.5z"/>
</g>
</svg>
