<?xml version="1.0" encoding="iso-8859-1"?>
<!-- Generator: Adobe Illustrator 19.1.0, SVG Export Plug-In . SVG Version: 6.00 Build 0)  -->
<svg version="1.1" id="Capa_1" xmlns="http://www.w3.org/2000/svg" xmlns:xlink="http://www.w3.org/1999/xlink" x="0px" y="0px"
	 viewBox="0 0 44.143 44.143" style="enable-background:new 0 0 44.143 44.143;" xml:space="preserve">
<path style="fill:#1E201D;" d="M2.066,27.667c-0.111-0.619,0.302-1.19,0.905-1.302c0.603-0.111,1.19,0.286,1.302,0.889
	c0.778,4.206,3.016,7.889,6.19,10.524c3.095,2.571,7.095,4.111,11.444,4.111c4.952,0,9.444-2,12.698-5.254
	c3.238-3.238,5.254-7.73,5.254-12.682s-2.016-9.444-5.254-12.698c-3.254-3.238-7.746-5.254-12.698-5.254
	c-1.032,0-2.016,0.079-2.984,0.254c-0.682,0.111-1.349,0.254-2,0.444l2.667,2.127c0.492,0.381,0.571,1.095,0.19,1.571
	c-0.381,0.492-1.095,0.571-1.571,0.175l-4.365-3.476c-0.413-0.333-0.524-0.905-0.302-1.365l2.206-5.063
	c0.254-0.556,0.905-0.825,1.476-0.571c0.571,0.238,0.825,0.905,0.571,1.476l-1.27,2.921c0.667-0.19,1.333-0.333,2.032-0.444
	c1.095-0.19,2.222-0.286,3.349-0.286c5.571,0,10.618,2.254,14.285,5.905c3.651,3.667,5.904,8.714,5.904,14.285
	s-2.254,10.619-5.904,14.269c-3.666,3.651-8.714,5.92-14.285,5.92c-4.889,0-9.38-1.746-12.872-4.651
	C5.478,36.54,2.954,32.381,2.066,27.667L2.066,27.667z"/>
<g>
</g>
<g>
</g>
<g>
</g>
<g>
</g>
<g>
</g>
<g>
</g>
<g>
</g>
<g>
</g>
<g>
</g>
<g>
</g>
<g>
</g>
<g>
</g>
<g>
</g>
<g>
</g>
<g>
</g>
</svg>
