<?xml version="1.0" encoding="iso-8859-1"?>
<!-- Generator: Adobe Illustrator 18.0.0, SVG Export Plug-In . SVG Version: 6.00 Build 0)  -->
<!DOCTYPE svg PUBLIC "-//W3C//DTD SVG 1.1//EN" "http://www.w3.org/Graphics/SVG/1.1/DTD/svg11.dtd">
<svg version="1.1" id="Capa_1" xmlns="http://www.w3.org/2000/svg" xmlns:xlink="http://www.w3.org/1999/xlink" x="0px" y="0px"
	 viewBox="0 0 487.69 487.69" style="enable-background:new 0 0 487.69 487.69;" xml:space="preserve">
<g>
	<path d="M385.089,118.011C410.209,77.945,398.076,25.103,358.011,0l-99.624,158.976l50.507,80.586L385.089,118.011z"/>
	<path d="M403.211,360.008c-16.1-25.721-43.937-39.293-72.216-38.803L129.681,0c-2.464,1.548-4.485,3.49-6.728,5.231
		c-34.33,26.618-43.905,75.182-20.333,112.78l90.712,144.757l-36.622,58.438c-28.275-0.49-56.111,13.082-72.225,38.803
		c-24.457,39.003-12.639,90.49,26.379,114.929c39.023,24.473,90.491,12.671,114.948-26.382c16.1-25.688,16.208-56.668,3.411-81.896
		l14.629-23.32l14.597,23.32c-12.765,25.228-12.67,56.208,3.448,81.896c24.452,39.053,75.925,50.855,114.943,26.382
		c9.796-6.13,17.856-13.981,24.078-22.891C419.496,425.426,421.517,389.218,403.211,360.008z M185.652,424.715
		c-10.771,17.156-33.396,22.37-50.583,11.595c-17.156-10.755-22.355-33.413-11.597-50.553
		c10.757-17.188,33.396-22.386,50.557-11.626C191.216,384.903,196.396,407.542,185.652,424.715z M244.61,291.078
		c-9.823,0-17.801-7.947-17.801-17.771c0-9.844,7.978-17.806,17.801-17.806c9.815,0,17.793,7.962,17.793,17.806
		C262.403,283.131,254.425,291.078,244.61,291.078z M352.641,436.31c-17.188,10.775-39.813,5.561-50.588-11.595
		c-10.739-17.173-5.559-39.812,11.597-50.584c17.174-10.76,39.813-5.561,50.588,11.626
		C374.995,402.897,369.797,425.555,352.641,436.31z"/>
</g>
<g>
</g>
<g>
</g>
<g>
</g>
<g>
</g>
<g>
</g>
<g>
</g>
<g>
</g>
<g>
</g>
<g>
</g>
<g>
</g>
<g>
</g>
<g>
</g>
<g>
</g>
<g>
</g>
<g>
</g>
</svg>
