<?xml version="1.0" encoding="iso-8859-1"?>
<!-- Generator: Adobe Illustrator 18.0.0, SVG Export Plug-In . SVG Version: 6.00 Build 0)  -->
<!DOCTYPE svg PUBLIC "-//W3C//DTD SVG 1.1//EN" "http://www.w3.org/Graphics/SVG/1.1/DTD/svg11.dtd">
<svg version="1.1" id="Capa_1" xmlns="http://www.w3.org/2000/svg" xmlns:xlink="http://www.w3.org/1999/xlink" x="0px" y="0px"
	 viewBox="0 0 482.697 482.697" style="enable-background:new 0 0 482.697 482.697;" xml:space="preserve">
<g>
	<path d="M441.039,0.088H133.251c-22.969,0-41.645,18.691-41.645,41.658v184.539H34.998C15.69,226.285,0,241.976,0,261.281v186.33
		c0,19.305,15.69,34.998,34.998,34.998h186.314c19.301,0,34.996-15.693,34.996-34.998v-56.416h184.73
		c22.969,0,41.658-18.693,41.658-41.66V41.746C482.697,18.779,464.007,0.088,441.039,0.088z M206.763,433.062H49.544V275.83h42.063
		v73.705c0,22.967,18.676,41.66,41.645,41.66h73.512V433.062z M206.763,341.648h-65.611V275.83h65.611V341.648z M433.152,341.648
		H256.308v-80.367c0-19.305-15.695-34.996-34.996-34.996h-80.16V49.632h292V341.648z"/>
	<path d="M272.308,231.621c5.273,0,10.549-2.016,14.578-6.045l65.06-65.063L370.64,194.4c1.258,2.273,3.74,3.563,6.32,3.289
		c2.566-0.291,4.727-2.08,5.455-4.582l35.078-119.348c0.678-2.242,0.047-4.676-1.615-6.336c-1.658-1.664-4.096-2.293-6.336-1.631
		l-119.365,35.078c-2.484,0.727-4.289,2.887-4.58,5.453c-0.275,2.578,1.031,5.063,3.289,6.322l33.869,18.676l-65.061,65.061
		c-8.066,8.064-8.066,21.129,0,29.193C261.726,229.605,267.019,231.621,272.308,231.621z"/>
</g>
<g>
</g>
<g>
</g>
<g>
</g>
<g>
</g>
<g>
</g>
<g>
</g>
<g>
</g>
<g>
</g>
<g>
</g>
<g>
</g>
<g>
</g>
<g>
</g>
<g>
</g>
<g>
</g>
<g>
</g>
</svg>
