<?xml version="1.0" encoding="iso-8859-1"?>
<!-- Generator: Adobe Illustrator 18.0.0, SVG Export Plug-In . SVG Version: 6.00 Build 0)  -->
<!DOCTYPE svg PUBLIC "-//W3C//DTD SVG 1.1//EN" "http://www.w3.org/Graphics/SVG/1.1/DTD/svg11.dtd">
<svg version="1.1" id="Capa_1" xmlns="http://www.w3.org/2000/svg" xmlns:xlink="http://www.w3.org/1999/xlink" x="0px" y="0px"
	 viewBox="0 0 493.332 493.332" style="enable-background:new 0 0 493.332 493.332;" xml:space="preserve">
<path d="M406.093,64.382h-89.182V53.761c0-10.365-8.4-18.771-18.78-18.771h-16.467c0-19.328-15.665-34.99-34.997-34.99
	c-19.32,0-34.985,15.662-34.985,34.99H195.2c-10.381,0-18.781,8.405-18.781,18.771v10.621H87.234
	c-9.281,0-16.792,7.519-16.792,16.793v395.363c0,9.275,7.511,16.794,16.792,16.794h318.859c9.282,0,16.797-7.519,16.797-16.794
	V81.174C422.89,71.901,415.375,64.382,406.093,64.382z M246.667,22.402c6.949,0,12.592,5.636,12.592,12.588
	c0,6.955-5.643,12.588-12.592,12.588c-6.941,0-12.584-5.633-12.584-12.588C234.083,28.038,239.726,22.402,246.667,22.402z
	 M389.302,459.744H104.031V97.969h72.389v7.823c0,10.366,8.4,18.771,18.781,18.771h102.931c10.38,0,18.78-8.405,18.78-18.771v-7.823
	h72.391V459.744z"/>
<g>
</g>
<g>
</g>
<g>
</g>
<g>
</g>
<g>
</g>
<g>
</g>
<g>
</g>
<g>
</g>
<g>
</g>
<g>
</g>
<g>
</g>
<g>
</g>
<g>
</g>
<g>
</g>
<g>
</g>
</svg>
