<?xml version="1.0" encoding="iso-8859-1"?>
<!-- Generator: Adobe Illustrator 18.0.0, SVG Export Plug-In . SVG Version: 6.00 Build 0)  -->
<!DOCTYPE svg PUBLIC "-//W3C//DTD SVG 1.1//EN" "http://www.w3.org/Graphics/SVG/1.1/DTD/svg11.dtd">
<svg version="1.1" id="Capa_1" xmlns="http://www.w3.org/2000/svg" xmlns:xlink="http://www.w3.org/1999/xlink" x="0px" y="0px"
	 viewBox="0 0 493.088 493.088" style="enable-background:new 0 0 493.088 493.088;" xml:space="preserve">
<g>
	<path d="M433.631,0.002H59.453C26.678,0.002,0,26.671,0,59.46v374.167c0,32.788,26.678,59.458,59.453,59.458h374.178
		c32.78,0,59.457-26.67,59.457-59.458V59.46C493.088,26.671,466.411,0.002,433.631,0.002z M442.687,433.627
		c0,4.997-4.068,9.058-9.056,9.058H59.453c-4.985,0-9.053-4.061-9.053-9.058v-22.032h392.286V433.627z M442.687,377.996H50.4v-4.907
		l90.229-145.424l44.513,99.906c2.119,4.748,6.302,8.253,11.35,9.491c5.121,1.215,10.387,0.048,14.474-3.19l49.021-39.121
		l46.825,53.689c2.869,3.281,6.89,5.324,11.219,5.701l124.655,10.688V377.996z M442.687,331.114l-115.009-9.876l-52.922-60.689
		c-5.928-6.791-16.111-7.695-23.153-2.092l-44.61,35.594l-48.578-109.028c-2.523-5.683-7.99-9.507-14.189-9.924
		c-6.363-0.371-12.154,2.615-15.422,7.899L50.4,309.36V59.46c0-4.997,4.067-9.056,9.053-9.056h374.178
		c4.987,0,9.056,4.059,9.056,9.056V331.114z"/>
	<path d="M322.299,91.114c-32.482,0-58.832,26.341-58.832,58.834c0,32.493,26.35,58.834,58.832,58.834
		c32.486,0,58.836-26.34,58.836-58.834C381.135,117.456,354.785,91.114,322.299,91.114z"/>
</g>
<g>
</g>
<g>
</g>
<g>
</g>
<g>
</g>
<g>
</g>
<g>
</g>
<g>
</g>
<g>
</g>
<g>
</g>
<g>
</g>
<g>
</g>
<g>
</g>
<g>
</g>
<g>
</g>
<g>
</g>
</svg>
