<?xml version="1.0" encoding="iso-8859-1"?>
<!-- Generator: Adobe Illustrator 18.0.0, SVG Export Plug-In . SVG Version: 6.00 Build 0)  -->
<!DOCTYPE svg PUBLIC "-//W3C//DTD SVG 1.1//EN" "http://www.w3.org/Graphics/SVG/1.1/DTD/svg11.dtd">
<svg version="1.1" id="Capa_1" xmlns="http://www.w3.org/2000/svg" xmlns:xlink="http://www.w3.org/1999/xlink" x="0px" y="0px"
	 viewBox="0 0 494.85 494.85" style="enable-background:new 0 0 494.85 494.85;" xml:space="preserve">
<g>
	<path d="M486.175,227.226c-1.501-1.868-3.963-2.652-6.226-1.963l-32.117,9.271C437.33,131.936,355.544,50.118,252.945,39.617
		l9.288-32.103c0.641-2.277-0.125-4.723-1.994-6.221c-1.852-1.488-4.42-1.711-6.514-0.574L153.378,55.483
		c-1.9,1.039-3.066,3.015-3.066,5.171c0,2.171,1.166,4.147,3.066,5.188l100.334,54.748c2.107,1.15,4.675,0.908,6.527-0.593
		c1.869-1.47,2.635-3.941,1.963-6.221l-7.006-24.263c73.66,10.805,131.922,69.096,142.743,142.758l-24.263-7.008
		c-2.264-0.672-4.724,0.11-6.222,1.963c-1.483,1.85-1.725,4.437-0.574,6.527l54.745,100.352c1.039,1.883,3.035,3.064,5.19,3.049
		c2.152,0.016,4.132-1.166,5.186-3.049l54.761-100.367C487.883,231.662,487.659,229.075,486.175,227.226z"/>
	<path d="M255.514,237.328v-78.353c0-6.77-5.491-12.261-12.272-12.261H19.654c-6.781,0-12.273,5.491-12.273,12.261v223.604
		c0,6.781,5.492,12.273,12.273,12.273h78.34V292.559c0-30.46,24.77-55.23,55.228-55.23H255.514z"/>
	<path d="M326.418,263.458H153.221c-16.043,0-29.1,13.037-29.1,29.101v173.192c0,16.059,13.057,29.099,29.1,29.099h173.196
		c16.038,0,29.095-13.04,29.095-29.099V292.559C355.512,276.495,342.455,263.458,326.418,263.458z M316.327,455.666H163.306V302.645
		h153.021V455.666z"/>
</g>
<g>
</g>
<g>
</g>
<g>
</g>
<g>
</g>
<g>
</g>
<g>
</g>
<g>
</g>
<g>
</g>
<g>
</g>
<g>
</g>
<g>
</g>
<g>
</g>
<g>
</g>
<g>
</g>
<g>
</g>
</svg>
