<?xml version="1.0" encoding="iso-8859-1"?>
<!-- Generator: Adobe Illustrator 18.0.0, SVG Export Plug-In . SVG Version: 6.00 Build 0)  -->
<!DOCTYPE svg PUBLIC "-//W3C//DTD SVG 1.1//EN" "http://www.w3.org/Graphics/SVG/1.1/DTD/svg11.dtd">
<svg version="1.1" id="Capa_1" xmlns="http://www.w3.org/2000/svg" xmlns:xlink="http://www.w3.org/1999/xlink" x="0px" y="0px"
	 viewBox="0 0 491.51 491.51" style="enable-background:new 0 0 491.51 491.51;" xml:space="preserve">
<g>
	<path d="M474.198,29.585H17.313C7.748,29.585,0,37.328,0,46.879v70.079c0,9.55,7.748,17.293,17.313,17.293h456.886
		c9.565,0,17.311-7.743,17.311-17.293V46.879C491.51,37.328,483.764,29.585,474.198,29.585z"/>
	<path d="M474.198,193.42H17.313C7.748,193.42,0,201.161,0,210.717v70.078c0,9.547,7.748,17.293,17.313,17.293h456.886
		c9.565,0,17.311-7.746,17.311-17.293v-70.078C491.51,201.161,483.764,193.42,474.198,193.42z"/>
	<path d="M474.198,357.253H263.065c-9.565,0-17.313,7.747-17.313,17.299v70.076c0,9.554,7.748,17.297,17.313,17.297h211.133
		c9.565,0,17.311-7.743,17.311-17.297v-70.076C491.51,365,483.764,357.253,474.198,357.253z"/>
</g>
<g>
</g>
<g>
</g>
<g>
</g>
<g>
</g>
<g>
</g>
<g>
</g>
<g>
</g>
<g>
</g>
<g>
</g>
<g>
</g>
<g>
</g>
<g>
</g>
<g>
</g>
<g>
</g>
<g>
</g>
</svg>
